<svg width="36" height="13" viewBox="0 0 36 13" fill="none" xmlns="http://www.w3.org/2000/svg">
<path d="M1.5 13C2.32843 13 3 12.3284 3 11.5C3 10.6716 2.32843 10 1.5 10C0.671573 10 0 10.6716 0 11.5C0 12.3284 0.671573 13 1.5 13Z" fill="black"/>
<path fill-rule="evenodd" clip-rule="evenodd" d="M1.5 1C2.05228 1 2.5 1.44772 2.5 2V7C2.5 7.55228 2.05228 8 1.5 8C0.947715 8 0.5 7.55228 0.5 7V2C0.5 1.44772 0.947715 1 1.5 1Z" fill="black"/>
<path d="M5.04297 12V1.81445H8.85059C9.62988 1.81445 10.2861 1.95117 10.8193 2.22461C11.3525 2.49805 11.7559 2.88086 12.0293 3.37305C12.3027 3.86068 12.4395 4.42806 12.4395 5.0752C12.4395 5.72233 12.3005 6.28516 12.0225 6.76367C11.749 7.24219 11.3434 7.61133 10.8057 7.87109C10.2679 8.13086 9.6071 8.26074 8.82324 8.26074H6.10254V6.75H8.58398C9.04427 6.75 9.42025 6.6862 9.71191 6.55859C10.0036 6.42643 10.2201 6.23503 10.3613 5.98438C10.5026 5.73372 10.5732 5.43066 10.5732 5.0752C10.5732 4.71061 10.5026 4.40072 10.3613 4.14551C10.2201 3.88574 10.0013 3.6875 9.70508 3.55078C9.41341 3.41406 9.03516 3.3457 8.57031 3.3457H6.86816V12H5.04297ZM10.7715 12L8.29688 7.37891H10.293L12.8154 12H10.7715ZM16.001 1.81445V12H14.1758V1.81445H16.001ZM21.6338 12.1572C20.8454 12.1572 20.1595 12.0342 19.5762 11.7881C18.9974 11.542 18.5439 11.1842 18.2158 10.7148C17.8877 10.2454 17.71 9.67578 17.6826 9.00586H19.4805C19.5124 9.36133 19.624 9.65755 19.8154 9.89453C20.0068 10.1315 20.2598 10.3092 20.5742 10.4277C20.8887 10.5417 21.2373 10.5986 21.6201 10.5986C22.0212 10.5986 22.3743 10.5371 22.6797 10.4141C22.9896 10.291 23.2311 10.1201 23.4043 9.90137C23.5775 9.67806 23.6641 9.42057 23.6641 9.12891C23.6641 8.86458 23.5866 8.64583 23.4316 8.47266C23.2812 8.29948 23.0671 8.15365 22.7891 8.03516C22.5156 7.91211 22.1943 7.80501 21.8252 7.71387L20.6699 7.41309C19.8177 7.19434 19.1523 6.86393 18.6738 6.42188C18.1999 5.97982 17.9629 5.39876 17.9629 4.67871C17.9629 4.07715 18.1247 3.55078 18.4482 3.09961C18.7718 2.64844 19.2139 2.2998 19.7744 2.05371C20.335 1.80306 20.9707 1.67773 21.6816 1.67773C22.4062 1.67773 23.042 1.80306 23.5889 2.05371C24.1357 2.30436 24.5618 2.65072 24.8672 3.09277C25.1771 3.53483 25.3389 4.03841 25.3525 4.60352H23.582C23.5365 4.16602 23.3405 3.82878 22.9941 3.5918C22.6523 3.35026 22.2057 3.22949 21.6543 3.22949C21.2715 3.22949 20.9411 3.28874 20.6631 3.40723C20.3896 3.52116 20.1777 3.67839 20.0273 3.87891C19.8815 4.07943 19.8086 4.30957 19.8086 4.56934C19.8086 4.85189 19.8952 5.08431 20.0684 5.2666C20.2461 5.44889 20.4671 5.59473 20.7314 5.7041C21.0003 5.81348 21.2715 5.90234 21.5449 5.9707L22.4951 6.2168C22.8734 6.30794 23.2402 6.42871 23.5957 6.5791C23.9512 6.72949 24.2702 6.9209 24.5527 7.15332C24.8398 7.38118 25.0677 7.65918 25.2363 7.9873C25.4049 8.31543 25.4893 8.70052 25.4893 9.14258C25.4893 9.73958 25.3366 10.266 25.0312 10.7217C24.7259 11.1729 24.2861 11.526 23.7119 11.7812C23.1377 12.0319 22.445 12.1572 21.6338 12.1572ZM28.4834 9.49121V7.76172C28.7021 7.40625 28.9163 7.07357 29.126 6.76367C29.3402 6.44922 29.5658 6.13932 29.8027 5.83398C30.0443 5.52865 30.3132 5.20508 30.6094 4.86328L33.2822 1.81445H35.5518L31.2314 6.68848L31.0947 6.64062L28.4834 9.49121ZM27.1641 12V1.81445H28.9893V4.83594L28.9551 7.29004L28.9893 8.18555V12H27.1641ZM33.4668 12L30.2266 7.20801L31.375 5.83398L35.6201 12H33.4668Z" fill="black"/>
</svg>
